<svg xmlns="http://www.w3.org/2000/svg" viewBox="0 0 87.323 139.5917"><g id="bd381b99-5c07-486e-9efb-2cc42dc7ca03" data-name="Ebene 2"><g id="e4a2c4ed-e1a0-49cd-8334-f5c322138ff5" data-name="Ebene 1"><path d="M78.2389,69.44a43.6042,43.6042,0,0,0-12.8316-3.375,36.9648,36.9648,0,1,1-58.6189,29.97c0-10.9578,5.1831-20.0747,13.0781-24.6935V13.4179A14.3477,14.3477,0,0,1,34.21,27.7616V67.3523A33.7548,33.7548,0,0,0,66.3332,42.8451c.0822-.2794.159-.5589.23-.8438A34.1348,34.1348,0,0,0,67.566,33.783a33.7852,33.7852,0,0,0-61.3309-19.56c-.12.17-.2411.34-.3562.5151A33.612,33.612,0,0,0,0,33.783C0,35.8649.2138,94.21.2138,96.0344A43.5546,43.5546,0,1,0,78.2389,69.44Z" style="fill:#667eea"/><path d="M19.866,95.6788v2.8928c-.0274-.4767-.0438-.9588-.0438-1.4464S19.8386,96.1554,19.866,95.6788Z" style="fill:#667eea"/><path d="M68.99,97.1252a24.5861,24.5861,0,0,1-48.4719,5.8241c0-.0055-.0055-.011-.0055-.0165v-.0054a24.2863,24.2863,0,0,1-.6465-4.3558v-27.23a23.9609,23.9609,0,0,1,3.5888-1.7094c5.1611-1.9834,6.4267-2.0655,10.3276-2.0655.1425,0,.2849,0,.4274-.0055v7.1883A24.595,24.595,0,0,1,68.99,97.1252Z" style="fill:#667eea"/><path d="M20.5125,102.9274a14.2107,14.2107,0,0,1-.6465-4.2627v-.0931A24.2863,24.2863,0,0,0,20.5125,102.9274Z" style="fill:#667eea"/></g></g></svg>