<svg id="Logo_Claim-Now" data-name="Logo Claim-Now" xmlns="http://www.w3.org/2000/svg" width="64.403" height="68.247" viewBox="0 0 64.403 68.247">
  <line id="Linie_14" data-name="Linie 14" y1="6.608" x2="6.608" transform="translate(32.735 33.503)" fill="#1D1D1B"/>
  <line id="Linie_15" data-name="Linie 15" y1="6.608" x2="6.608" transform="translate(44.213 41.805)" fill="#1D1D1B"/>
  <line id="Linie_16" data-name="Linie 16" y1="6.608" x2="6.608" transform="translate(55.69 50.106)" fill="#1D1D1B"/>
  <g id="Gruppe_30" data-name="Gruppe 30">
    <g id="Gruppe_29" data-name="Gruppe 29" transform="translate(0)">
      <path id="Pfad_153" data-name="Pfad 153" d="M67.18,88.814c-.751.4-1.518.783-2.307,1.159-33.748-15.9-28.483-59.5-28.483-59.5L64.873,21.73l2.307.7L41.005,30.471S35.983,72.066,67.18,88.814Z" transform="translate(-36.092 -21.725)" fill="#1D1D1B"/>
      <path id="Pfad_154" data-name="Pfad 154" d="M309.04,89.936c-.789-.369-1.556-.758-2.3-1.159,31.2-16.756,26.175-58.342,26.175-58.342L306.74,22.394l2.3-.7,28.484,8.741S342.788,74.041,309.04,89.936Z" transform="translate(-273.418 -21.69)" fill="#1D1D1B"/>
    </g>
    <path id="Pfad_155" data-name="Pfad 155" d="M114.86,151.4a11.242,11.242,0,0,0,.676,4.016,8.8,8.8,0,0,0,1.859,3.01,7.994,7.994,0,0,0,2.794,1.882,9.214,9.214,0,0,0,3.493.653,5.622,5.622,0,0,0,2.173-.435,8.34,8.34,0,0,0,1.94-1.135,10.182,10.182,0,0,0,2.76-3.356l1.513.965a13.823,13.823,0,0,1-1.561,2.07,10.418,10.418,0,0,1-4.757,2.97,11.45,11.45,0,0,1-3.324.451,12.633,12.633,0,0,1-4.821-.885,11.393,11.393,0,0,1-3.71-2.4,10.637,10.637,0,0,1-2.391-3.534,10.958,10.958,0,0,1-.845-4.273,11.133,11.133,0,0,1,.385-2.923,10.887,10.887,0,0,1,1.119-2.672,11.027,11.027,0,0,1,1.786-2.285,11.252,11.252,0,0,1,2.382-1.788,12.11,12.11,0,0,1,2.906-1.159,13.331,13.331,0,0,1,3.365-.411,10.342,10.342,0,0,1,3.147.459,11.087,11.087,0,0,1,2.624,1.215,10.938,10.938,0,0,1,2.109,1.752,12.917,12.917,0,0,1,1.586,2.068l-1.561,1.031a10.519,10.519,0,0,0-2.994-3.8,6.338,6.338,0,0,0-3.817-1.2,8.846,8.846,0,0,0-3.461.676,8.273,8.273,0,0,0-2.81,1.932,8.988,8.988,0,0,0-1.882,3.05A11.279,11.279,0,0,0,114.86,151.4Z" transform="translate(-101.478 -125.58)" fill="#1D1D1B"/>
    <rect id="Rechteck_27" data-name="Rechteck 27" width="1.977" height="20.397" transform="translate(29.111 0.709)" fill="#1D1D1B"/>
    <rect id="Rechteck_28" data-name="Rechteck 28" width="1.887" height="21.149" transform="translate(33.322 45.938)" fill="#1D1D1B"/>
    <path id="Pfad_156" data-name="Pfad 156" d="M306.74,223.05h2.274L323,238.665h.16V223.05h1.585v21.845h-.837l-15.144-17.36h-.123V244.4h-1.9Z" transform="translate(-273.418 -198.259)" fill="#1D1D1B"/>
  </g>
</svg>
