<svg id="undraw_healthy_lifestyle_6tyl" xmlns="http://www.w3.org/2000/svg" width="725.925" height="662.347" viewBox="0 0 725.925 662.347">
  <rect id="Rechteck_2" data-name="Rechteck 2" width="563.536" height="314.326" transform="translate(99.684 253.481)" fill="#3f3d56"/>
  <path id="Pfad_14" data-name="Pfad 14" d="M268.538,359.24l37.1-13.945c-10.739-13.03-25.012-26.34-40.076-38.793l-51.187,8.666,42.258-15.883a791.573,791.573,0,0,0-75.974-52.5S138.352,365.267,150.788,417.9c7.213,30.526,26.652,54.622,51.019,67.278l.991-68.007,13.236,73.9a81.964,81.964,0,0,0,43.688,1.7c47.726-11.278,76.335-63.085,63.9-115.715-1.863-7.884-6.385-16.329-12.711-24.99Z" transform="translate(-148.5 -78.978)" fill="#d0cde1"/>
  <ellipse id="Ellipse_2" data-name="Ellipse 2" cx="25.848" cy="8.819" rx="25.848" ry="8.819" transform="translate(94.63 395.468) rotate(-30)" opacity="0.1"/>
  <path id="Pfad_15" data-name="Pfad 15" d="M444.381,699.618H393.687a213.75,213.75,0,0,1-20.3-21.914l-35.34-59.553L293.77,543.508l-4.928-8.3-4.052-6.833,21.9-12.163,4.655,6.206.908,1.206,5.338,7.107,35.951,47.889,3.931-35.951h14.6l-11.986,44.665Z" transform="translate(-175.226 -131.811)" fill="#f2f2f2"/>
  <path id="Pfad_16" data-name="Pfad 16" d="M868.157,356.486l-41.985-4.19c7.48-16.343,18.52-33.943,30.608-50.876l55.028-5.1-47.818-4.772a842.635,842.635,0,0,1,63.785-74.8s75.954,110.3,77.566,167.842c.935,33.377-12.466,63.485-34.068,83.174l-19.635-69.688,6.612,79.647a87.25,87.25,0,0,1-44.477,13.708c-52.183,1.462-95.793-44-97.406-101.547-.242-8.62,2.1-18.546,6.236-29.187Z" transform="translate(-279.464 -73.088)" fill="#d0cde1"/>
  <ellipse id="Ellipse_3" data-name="Ellipse 3" cx="9.388" cy="27.515" rx="9.388" ry="27.515" transform="matrix(0.261, -0.965, 0.965, 0.261, 588.34, 398.749)" opacity="0.1"/>
  <path id="Pfad_17" data-name="Pfad 17" d="M910.331,534.235l-.249.892-2.05,7.259-2.8,9.88v.008l-25.122,88.888L863.166,701.11c-.289.257-.579.506-.876.764H814.12L849.009,615.5l-24.551-42.663,15.017-4,13.883,35.894,23.876-59.087.008-.008,3.537-8.771.6-1.5,3.087-7.661,25.058,6.327Z" transform="translate(-279.026 -134.066)" fill="#f2f2f2"/>
  <path id="Pfad_18" data-name="Pfad 18" d="M530.625,769.658l-20.07,74.2h68.726l7.906-7.3,3.041,7.3H663.82s7.906-48.047-1.825-51.7S530.625,769.658,530.625,769.658Z" transform="translate(-219.498 -181.51)" fill="#2f2e41"/>
  <circle id="Ellipse_4" data-name="Ellipse 4" cx="41.965" cy="41.965" r="41.965" transform="translate(346.403 211.676)" fill="#a0616a"/>
  <path id="Pfad_19" data-name="Pfad 19" d="M591.31,379.656s7.906,59.6-4.257,66.293,72.375,7.3,72.375,7.3-18.854-51.7-10.339-67.51Z" transform="translate(-234.264 -105.032)" fill="#a0616a"/>
  <path id="Pfad_20" data-name="Pfad 20" d="M605.863,446.282s-21.292-3.18-25.851-13.754l-64.162,28.351s11.556,84.539,18.246,99.744l-8.515,152.657s59.6,39.533,139.885,18.246l20.07-167.861,21.9-99.744-70.1-28.154S623.5,445.065,605.863,446.282Z" transform="translate(-220.536 -115.4)" fill="#667eea"/>
  <path id="Pfad_21" data-name="Pfad 21" d="M665.475,688.689s-77.241-2.433-71.767,20.679,76.632-1.216,76.632-1.216Z" transform="translate(-235.749 -165.618)" fill="#a0616a"/>
  <path id="Pfad_22" data-name="Pfad 22" d="M585.466,297.377l-7.846-3.141s16.406-18.062,39.233-16.492l-6.42-7.068s15.693-6.283,29.959,10.209c7.5,8.669,16.177,18.86,21.586,30.339h8.4l-3.507,7.722,12.275,7.722-12.6-1.387a43.153,43.153,0,0,1,.342,12.809,16.573,16.573,0,0,1-6.069,10.842h0s-9.731-20.142-9.731-23.284V333.5s-7.846-7.068-7.846-11.78l-4.28,5.5-2.14-8.639-26.393,8.639,4.28-7.068-16.406,2.356,6.42-8.639s-18.546,10.209-19.26,18.848-6.142,16.824-6.142,16.824S564.78,309.157,585.466,297.377Z" transform="translate(-232.009 -83.431)" fill="#2f2e41"/>
  <path id="Pfad_23" data-name="Pfad 23" d="M640.426,652.879v10.352a.362.362,0,0,1-.361.361h-.257V717.52a5.627,5.627,0,0,1-5.626,5.627h-33.7a5.626,5.626,0,0,1-5.625-5.626V665.483h-.186a.255.255,0,0,1-.255-.254v-5.892a.255.255,0,0,1,.255-.255h.186v-2.219h-.188a.267.267,0,0,1-.266-.268v-5.811a.267.267,0,0,1,.266-.266h.188v-3.029h-.191a.236.236,0,0,1-.236-.236v-3.172a.237.237,0,0,1,.236-.238h.191v-6.421a5.625,5.625,0,0,1,5.625-5.625h33.7a5.627,5.627,0,0,1,5.627,5.625v15.1h.257a.362.362,0,0,1,.361.361Z" transform="translate(-235.941 -154.476)" fill="#3f3d56"/>
  <circle id="Ellipse_5" data-name="Ellipse 5" cx="5.516" cy="5.516" r="5.516" transform="translate(375.933 495.827)" fill="#f2f2f2"/>
  <path id="Pfad_24" data-name="Pfad 24" d="M718.249,471.577H737.1s60.211,131.37,45.615,147.183-102.785,58.995-102.785,58.995-6.69-33.451-12.772-33.451L727.98,606.6l-29.8-71.159Z" transform="translate(-250.208 -123.058)" fill="#667eea"/>
  <path id="Pfad_25" data-name="Pfad 25" d="M558.306,681.9s68.726,36.492,55.954,52.3-74.2-27.977-74.2-27.977Z" transform="translate(-225.284 -164.301)" fill="#a0616a"/>
  <path id="Pfad_26" data-name="Pfad 26" d="M511.509,468.551h-8.515s-12.164,11.556-15.813,37.708l-35.334,78.735a17.794,17.794,0,0,0,.248,15.1c7.842,16.06,28.481,52.3,59.414,63.081l15.813,12.164s-1.825-29.8,23.111-29.8L507.86,599.312l16.421-53.521Z" transform="translate(-207.68 -122.464)" fill="#667eea"/>
  <rect id="Rechteck_3" data-name="Rechteck 3" width="209.434" height="161.563" transform="translate(381.854)" fill="#3f3d56"/>
  <rect id="Rechteck_4" data-name="Rechteck 4" width="29.254" height="77.125" transform="translate(418.09 58.176)" fill="#d0cde1"/>
  <rect id="Rechteck_5" data-name="Rechteck 5" width="29.254" height="47.206" transform="translate(471.944 88.095)" fill="#d0cde1"/>
  <rect id="Rechteck_6" data-name="Rechteck 6" width="29.254" height="109.039" transform="translate(525.798 26.262)" fill="#d0cde1"/>
  <circle id="Ellipse_6" data-name="Ellipse 6" cx="14.627" cy="14.627" r="14.627" transform="translate(471.944 43.549)" fill="#667eea"/>
  <rect id="Rechteck_7" data-name="Rechteck 7" width="209.434" height="161.563" transform="translate(121.774 31.072)" fill="#3f3d56"/>
  <path id="Pfad_27" data-name="Pfad 27" d="M339.677,215.232s1.995-53.854,41.887-45.211S480.63,128.8,480.63,128.8" transform="translate(-185.989 -55.84)" fill="#667eea"/>
  <path id="Pfad_28" data-name="Pfad 28" d="M188.347,169.827V66.772h-13.3V183.124H346.586v-13.3Z" transform="translate(-34.327 -13.094)" fill="#d0cde1"/>
  <path id="Pfad_29" data-name="Pfad 29" d="M582.157,559.613l7.279,8.492c2.7-.516,5.528-1.122,8.437-1.8l-2.091-6.69,5.112,5.964c30.815-7.579,69.01-22.314,69.01-22.314s-41.235,3.024-72.024-3.7a29.3,29.3,0,0,0-33.228,16.551c-3.249,7.425-2.739,13.858,8.785,13.858a76.111,76.111,0,0,0,11.615-1.093Z" transform="translate(-229.767 -136.252)" fill="#2f2e41"/>
</svg>
