<?xml version="1.0" standalone="no"?>
<!DOCTYPE svg PUBLIC "-//W3C//DTD SVG 20010904//EN"
 "http://www.w3.org/TR/2001/REC-SVG-20010904/DTD/svg10.dtd">
<svg version="1.0" xmlns="http://www.w3.org/2000/svg"
 width="1120.000000pt" height="1120.000000pt" viewBox="0 0 1120.000000 1120.000000"
 preserveAspectRatio="xMidYMid meet">
<metadata>
Created by potrace 1.11, written by Peter Selinger 2001-2013
</metadata>
<g transform="translate(0.000000,1120.000000) scale(0.100000,-0.100000)"
fill="#000000" stroke="none">
<path d="M4619 11195 c-2 -1 -34 -6 -71 -9 -81 -7 -288 -39 -330 -52 -9 -3
-25 -6 -35 -8 -149 -29 -430 -133 -605 -223 -220 -114 -365 -213 -563 -383
-54 -47 -235 -230 -265 -269 -14 -18 -34 -42 -45 -55 -11 -12 -29 -35 -40 -51
-11 -15 -28 -36 -37 -47 -10 -10 -18 -20 -18 -22 0 -2 -29 -47 -65 -100 -36
-53 -65 -98 -65 -100 0 -3 -22 -42 -48 -88 -27 -46 -49 -86 -50 -91 -1 -4 -8
-20 -16 -35 -47 -93 -157 -386 -171 -457 -2 -11 -4 -20 -5 -20 -1 0 -3 -9 -5
-19 -3 -15 -32 -143 -40 -176 -1 -3 -5 -30 -9 -60 -5 -30 -10 -64 -12 -75 -16
-84 -19 -329 -17 -1600 2 -1805 11 -3908 18 -4000 2 -38 7 -90 10 -115 3 -25
8 -65 11 -90 3 -25 8 -61 11 -80 3 -19 6 -44 8 -56 2 -11 8 -45 14 -75 7 -31
14 -69 17 -85 18 -101 118 -432 159 -529 91 -215 210 -460 241 -496 8 -8 14
-19 14 -23 0 -7 167 -261 190 -289 6 -7 29 -37 52 -67 23 -30 45 -56 50 -58 4
-2 8 -11 8 -19 0 -9 3 -13 7 -9 4 3 12 -2 17 -12 41 -73 335 -362 506 -495 8
-7 35 -28 60 -48 63 -51 285 -199 298 -199 6 0 12 -4 14 -8 3 -9 133 -83 145
-83 5 0 15 -6 23 -13 20 -17 269 -136 285 -136 3 0 24 -9 48 -19 47 -21 231
-88 267 -96 26 -6 98 -27 110 -32 19 -7 23 -9 125 -32 67 -15 307 -59 355 -65
238 -29 691 -29 870 -1 14 2 48 7 75 11 28 3 59 8 70 9 68 12 93 17 119 21 15
2 50 10 76 18 27 8 51 12 53 9 3 -3 12 -1 19 3 7 5 18 9 23 10 6 2 44 12 85
24 41 11 82 22 90 24 40 11 274 98 345 129 100 43 262 124 333 166 29 17 55
31 58 31 3 0 57 34 120 75 228 148 386 277 579 470 134 134 143 144 232 255
29 36 58 72 65 80 46 53 198 275 198 288 0 6 4 12 8 14 10 4 136 226 138 245
2 8 10 23 19 33 9 10 18 24 19 32 1 7 14 38 28 68 118 250 236 634 264 854 3
22 8 44 10 48 3 5 7 32 10 61 2 29 6 63 9 77 19 86 27 561 12 710 -4 36 -9 85
-11 110 -4 45 -9 76 -26 180 -16 95 -41 209 -61 280 -6 25 -13 52 -14 60 -6
36 -80 254 -121 355 -25 60 -46 115 -47 120 -4 15 -133 271 -169 335 -45 80
-189 297 -235 355 -29 36 -54 55 -89 69 -27 10 -62 24 -79 31 -28 12 -207 74
-230 79 -31 7 -102 28 -115 33 -8 3 -21 7 -29 9 -7 1 -34 7 -60 13 -25 6 -55
13 -66 15 -11 1 -27 6 -35 9 -16 6 -122 25 -175 32 -16 2 -43 6 -60 9 -38 8
-115 15 -115 11 0 -1 26 -22 58 -46 31 -23 59 -45 62 -48 3 -3 34 -30 70 -60
73 -61 270 -258 321 -322 19 -23 41 -49 49 -58 8 -9 26 -32 40 -51 13 -19 27
-37 30 -40 14 -12 120 -170 120 -180 0 -5 4 -10 8 -10 4 0 19 -22 33 -50 13
-27 27 -50 32 -50 4 0 7 -6 7 -14 0 -7 7 -19 15 -26 8 -7 13 -16 10 -20 -3 -5
-2 -10 3 -12 9 -4 91 -170 133 -271 29 -69 107 -293 114 -326 2 -9 11 -43 20
-76 20 -76 24 -93 50 -230 8 -44 18 -102 20 -130 3 -27 9 -77 12 -110 15 -131
8 -518 -11 -645 -3 -19 -8 -57 -11 -84 -3 -27 -8 -53 -11 -57 -2 -4 -7 -27
-10 -51 -15 -107 -130 -496 -155 -522 -5 -6 -9 -16 -9 -24 0 -48 -173 -373
-302 -566 -32 -47 -179 -236 -219 -280 -71 -81 -243 -249 -290 -287 -24 -18
-54 -43 -65 -54 -12 -11 -31 -27 -44 -35 -12 -8 -31 -23 -43 -33 -12 -10 -60
-44 -107 -75 -47 -31 -87 -59 -90 -62 -14 -14 -261 -150 -273 -150 -6 0 -18
-6 -26 -13 -9 -8 -52 -28 -96 -46 -44 -19 -91 -38 -105 -44 -14 -5 -29 -11
-35 -13 -5 -2 -47 -16 -92 -33 -46 -17 -83 -28 -83 -25 0 2 -9 0 -21 -6 -11
-6 -28 -13 -37 -15 -9 -1 -35 -8 -57 -14 -22 -6 -44 -11 -50 -12 -5 -1 -20 -5
-31 -10 -12 -4 -41 -11 -65 -14 -24 -4 -46 -8 -49 -10 -3 -2 -26 -6 -50 -10
-68 -10 -111 -16 -131 -20 -137 -27 -641 -26 -774 0 -18 4 -49 9 -120 19 -58
9 -150 29 -235 52 -52 13 -102 26 -110 29 -29 7 -165 53 -195 66 -17 6 -50 21
-75 32 -25 11 -49 20 -55 21 -14 3 -208 99 -285 141 -102 57 -281 179 -393
267 -125 99 -324 294 -415 406 -37 46 -77 95 -90 110 -28 34 -157 227 -204
307 -97 164 -226 455 -263 590 -12 44 -12 44 -34 118 -11 38 -22 81 -25 95 -3
15 -15 72 -26 127 -11 55 -23 124 -26 154 -3 30 -8 64 -10 75 -8 42 -17 214
-17 331 0 196 16 359 48 515 1 3 5 25 10 50 10 53 12 59 15 63 1 1 4 14 6 29
6 35 89 278 115 336 82 180 211 402 285 489 11 11 35 41 54 64 59 72 184 194
269 263 81 65 226 166 239 166 4 0 8 -512 9 -1137 0 -626 3 -1159 6 -1185 5
-48 24 -141 34 -168 7 -18 9 -26 16 -65 6 -31 51 -174 66 -210 10 -23 44 -100
74 -165 11 -25 20 -48 19 -52 -1 -5 2 -8 8 -8 5 0 10 -5 10 -10 0 -6 12 -29
27 -53 82 -129 99 -156 127 -192 17 -22 36 -45 41 -51 6 -6 26 -30 45 -54 51
-62 186 -191 260 -250 36 -28 72 -56 80 -63 8 -7 33 -23 55 -37 22 -13 42 -27
45 -31 3 -3 32 -21 65 -38 33 -18 67 -36 75 -41 114 -69 413 -170 570 -194 19
-3 46 -8 59 -11 78 -15 430 -28 456 -15 6 2 19 5 30 6 154 11 393 71 556 140
80 34 234 110 254 126 20 16 86 58 91 58 3 0 10 4 17 10 51 42 76 60 80 60 8
0 77 60 161 143 44 42 82 77 86 78 20 2 214 272 275 383 58 105 65 120 65 133
0 6 4 13 8 15 6 2 75 169 78 188 0 3 11 39 23 80 13 41 25 83 27 95 2 11 6 31
10 45 3 14 7 34 9 45 2 11 6 34 9 50 26 134 27 542 1 617 -2 7 -6 27 -9 43
-29 179 -109 409 -198 575 -50 92 -127 212 -142 222 -6 4 -8 8 -4 8 9 0 1 11
-91 119 -181 214 -394 380 -641 498 -99 48 -213 96 -224 94 -3 0 -21 6 -41 15
-19 8 -35 11 -35 8 0 -4 -6 -2 -12 4 -12 10 -125 37 -198 48 -54 9 -75 12 -75
14 0 17 -507 18 -539 2 -4 -2 -28 -6 -52 -8 -86 -7 -318 -71 -436 -120 -32
-13 -61 -24 -65 -24 -4 0 -8 127 -8 282 l0 283 -140 -1 c-166 -1 -257 -10
-350 -36 -22 -6 -46 -13 -54 -14 -18 -3 -170 -54 -201 -67 -14 -6 -27 -11 -30
-11 -21 -4 -186 -72 -188 -78 -2 -4 -11 -8 -19 -8 -9 0 -48 -18 -89 -40 -40
-22 -74 -37 -76 -33 -4 7 -3 4616 1 4635 0 4 11 5 24 3 12 -2 54 -7 92 -11 86
-8 91 -9 140 -20 49 -10 46 -9 70 -18 136 -51 184 -72 208 -88 15 -11 27 -17
27 -14 0 4 22 -10 50 -29 27 -19 52 -35 54 -35 13 0 198 -176 236 -226 36 -46
80 -113 80 -122 0 -6 3 -12 8 -14 12 -5 71 -131 97 -207 22 -67 38 -131 51
-216 4 -22 8 -776 9 -1675 2 -899 3 -1640 4 -1646 1 -5 18 -9 39 -8 70 3 234
15 251 19 10 2 42 7 72 10 67 9 87 13 119 19 14 3 34 8 46 10 11 2 49 11 85
20 35 9 73 18 84 20 77 15 404 141 417 160 4 6 8 8 8 3 0 -7 165 77 232 119
21 13 42 24 47 24 5 0 11 3 13 8 2 4 28 23 58 42 30 19 57 37 60 40 3 4 25 20
50 38 25 17 57 41 72 54 15 13 42 34 60 48 49 38 289 278 334 335 21 28 41 52
44 55 3 3 18 23 35 45 16 22 31 42 34 45 6 5 81 117 127 190 42 66 166 307
170 329 0 4 8 22 16 41 18 41 30 71 34 85 2 6 19 57 38 115 43 131 64 205 70
251 3 20 8 42 10 50 5 14 15 73 21 119 1 14 6 50 10 80 22 181 22 491 0 640
-3 19 -8 55 -10 80 -3 25 -8 53 -11 63 -3 11 -7 29 -9 40 -4 35 -26 141 -32
157 -3 8 -7 20 -8 26 -2 6 -11 38 -20 70 -9 33 -19 66 -20 74 -2 8 -13 40 -25
70 -12 30 -25 66 -29 80 -5 14 -24 60 -44 103 -20 42 -33 77 -29 77 4 0 2 4
-4 8 -5 4 -21 30 -33 57 -13 28 -31 61 -41 75 -10 14 -19 30 -20 35 -2 6 -8
19 -15 30 -28 46 -146 227 -155 238 -20 24 -45 56 -65 83 -87 119 -270 300
-475 467 -55 45 -273 187 -287 187 -7 0 -13 5 -13 10 0 6 -4 10 -10 10 -5 0
-31 13 -57 28 -77 44 -359 168 -400 175 -10 2 -28 9 -40 15 -13 7 -23 10 -23
8 0 -3 -12 -1 -27 5 -16 6 -35 12 -43 14 -8 3 -53 13 -100 25 -47 11 -96 23
-110 27 -14 3 -32 7 -40 8 -8 1 -31 5 -50 8 -19 4 -57 10 -85 13 -27 3 -61 8
-75 10 -31 6 -476 14 -481 9z"/>
</g>
</svg>
